<?xml version="1.0" standalone="no"?>
<!DOCTYPE svg PUBLIC "-//W3C//DTD SVG 20010904//EN"
 "http://www.w3.org/TR/2001/REC-SVG-20010904/DTD/svg10.dtd">
<svg version="1.0" xmlns="http://www.w3.org/2000/svg"
 width="501.000000pt" height="501.000000pt" viewBox="0 0 501.000000 501.000000"
 preserveAspectRatio="xMidYMid meet">
<metadata>
Created by potrace 1.14, written by Peter Selinger 2001-2017
</metadata>
<g transform="translate(0.000000,501.000000) scale(0.100000,-0.100000)"
fill="#000000" stroke="none">
<path d="M2239 4496 c-2 -2 -35 -7 -74 -10 -38 -4 -77 -9 -85 -10 -368 -72
-758 -399 -953 -799 -92 -187 -140 -357 -163 -572 -3 -33 -8 -63 -10 -67 -2
-4 0 -9 6 -13 6 -4 7 -13 2 -23 -9 -19 -8 -109 2 -222 6 -68 9 -88 21 -155 2
-11 4 -31 4 -44 1 -36 12 -18 17 26 35 379 210 635 444 651 46 3 83 -1 113
-11 l45 -15 -4 37 c-10 107 -3 256 17 351 6 30 13 62 14 70 2 8 4 15 5 15 1 0
3 10 6 23 6 32 74 215 84 226 5 4 0 -23 -10 -62 -54 -206 -59 -381 -16 -579 5
-24 63 -150 77 -167 5 -6 27 -35 49 -63 86 -112 236 -210 387 -251 90 -25 126
-45 153 -81 29 -41 35 -119 15 -190 -17 -56 -72 -182 -85 -191 -10 -7 -20 -40
-13 -40 24 0 152 86 218 146 120 110 178 296 150 476 -7 49 -45 178 -56 193
-10 13 -54 164 -73 247 -21 93 -17 229 8 257 26 28 30 27 45 -16 8 -21 22 -43
31 -50 9 -7 27 -39 39 -73 30 -81 60 -99 154 -91 23 2 22 21 -2 21 -27 0 -87
64 -96 102 -12 59 -17 98 -10 98 3 0 15 -8 26 -19 20 -19 61 -31 105 -31 46 0
73 -21 82 -64 l8 -41 27 29 c49 52 26 134 -45 166 -45 20 -88 54 -88 70 0 13
4 12 35 -2 14 -6 25 -15 25 -20 0 -4 7 -8 15 -8 18 0 11 23 -21 66 -22 31 -38
77 -48 147 -10 63 -35 109 -83 154 -25 24 -48 42 -50 39 -2 -2 7 -32 21 -67
13 -35 27 -77 31 -94 6 -29 6 -29 -9 -10 -8 11 -16 25 -16 31 0 6 -21 32 -46
58 -50 49 -98 70 -154 64 l-35 -3 40 -23 c36 -20 85 -76 85 -95 0 -4 -12 -1
-27 6 -41 20 -113 21 -164 1 -61 -24 -68 -33 -32 -40 18 -3 41 -17 53 -29 l22
-23 -58 -12 c-76 -16 -128 -50 -164 -107 -35 -54 -40 -83 -11 -54 21 21 62 44
108 62 25 9 23 5 -18 -38 -56 -58 -94 -116 -105 -163 -4 -19 -9 -42 -11 -50
-7 -31 -8 -80 -1 -80 3 0 11 15 18 34 13 40 70 129 78 122 3 -3 -1 -12 -8 -21
-7 -8 -10 -15 -6 -15 3 0 1 -12 -5 -27 -14 -35 -19 -65 -20 -125 -1 -49 -6
-55 -37 -39 -9 5 -39 19 -65 31 -68 31 -145 113 -195 208 -23 45 -43 84 -42
87 0 3 0 6 -1 8 0 1 -2 9 -4 17 -2 8 -9 33 -15 55 -18 66 -20 204 -4 279 27
130 106 239 226 312 32 20 64 37 71 38 7 2 24 8 39 14 14 6 54 17 87 23 67 14
65 24 -6 28 -26 1 -50 4 -53 6 -4 3 -9 3 -11 1z"/>
<path d="M2730 4494 c-8 -2 -33 -6 -55 -10 l-40 -7 60 -12 c97 -21 103 -22
178 -59 118 -57 205 -152 249 -272 18 -48 22 -80 22 -174 -1 -119 -2 -135 -24
-210 -8 -25 -14 -47 -14 -50 -1 -3 -17 -36 -36 -74 -46 -89 -128 -174 -205
-210 -81 -38 -89 -42 -175 -72 -112 -39 -110 -33 -61 -171 22 -65 43 -127 46
-138 2 -11 8 -33 12 -50 5 -16 9 -65 8 -107 0 -43 2 -78 5 -78 3 0 25 7 50 16
25 9 56 18 69 20 41 8 139 53 199 91 59 38 163 136 197 187 51 75 100 176 111
231 20 90 23 125 19 230 -2 66 -6 134 -9 150 -12 71 -18 102 -27 140 -5 22
-11 48 -14 58 -2 9 -7 23 -11 30 -5 8 -4 9 4 2 10 -10 69 -150 77 -184 3 -9
13 -49 24 -90 32 -119 45 -292 31 -402 -4 -27 -6 -49 -4 -49 1 0 17 6 36 14
58 25 172 16 242 -18 166 -81 301 -328 321 -586 6 -86 6 -87 15 -58 33 110 33
543 0 657 -5 17 -9 34 -9 36 1 17 -15 93 -22 106 -4 9 -10 27 -13 40 -11 54
-63 190 -106 277 -126 256 -386 533 -625 666 -82 46 -206 93 -290 111 -72 15
-196 25 -235 19z"/>
<path d="M2109 2166 c-2 -2 -20 -6 -39 -9 -31 -4 -205 -44 -300 -68 -98 -26
-295 -20 -345 10 -27 16 -43 8 -65 -32 -28 -49 -40 -59 -56 -46 -8 6 -14 7
-18 0 -4 -5 -27 -7 -52 -4 -50 5 -94 -2 -94 -16 0 -8 -204 -358 -239 -411 -9
-14 -22 -36 -29 -50 -7 -14 -21 -38 -32 -55 -11 -16 -23 -37 -27 -45 -3 -8
-15 -27 -25 -42 -31 -46 -20 -82 31 -93 12 -3 30 -7 41 -9 11 -3 23 -7 28 -9
8 -6 185 -36 240 -42 48 -5 268 -6 307 -1 128 16 169 23 350 62 11 2 36 7 55
10 19 4 44 8 55 10 207 40 331 18 437 -76 l56 -50 104 0 103 0 40 38 c39 38
125 98 125 87 0 -3 15 2 33 12 48 26 268 25 357 -2 8 -2 31 -7 50 -9 19 -3 46
-8 60 -11 14 -3 39 -7 55 -10 17 -3 41 -8 55 -10 71 -15 103 -20 195 -31 78
-10 280 -11 343 -3 31 4 77 10 102 12 50 6 175 32 203 42 25 10 21 47 -12 102
-104 170 -211 356 -211 364 0 5 -4 9 -9 9 -5 0 -11 8 -15 18 -3 9 -13 31 -23
47 -10 17 -36 61 -58 98 l-40 69 -61 -5 c-33 -3 -67 -2 -74 3 -8 5 -19 5 -25
0 -15 -12 -27 -2 -50 44 -24 46 -33 50 -71 35 -42 -18 -52 -19 -124 -25 -36
-3 -75 -6 -87 -8 -13 -2 -23 0 -23 3 0 4 -17 8 -37 9 -37 3 -78 9 -78 12 0 1
-9 3 -20 5 -11 2 -50 11 -85 20 -236 59 -320 65 -410 30 -59 -23 -158 -84
-180 -110 -18 -22 -26 -19 -78 23 -44 35 -148 92 -182 100 -24 5 -147 11 -151
8z m220 -70 c41 -21 80 -43 86 -49 7 -7 24 -22 39 -34 l26 -23 1 -237 c1 -131
1 -242 0 -247 -1 -6 -2 -38 -2 -73 0 -34 -5 -66 -11 -69 -6 -4 -8 -3 -5 3 10
15 -45 94 -93 136 -66 57 -155 84 -285 88 -38 1 -152 -9 -185 -16 -14 -3 -42
-8 -62 -10 -21 -3 -66 -12 -100 -20 -68 -15 -102 -22 -215 -39 -7 -1 -15 -5
-19 -8 -3 -4 -13 -4 -21 -1 -8 3 -19 0 -24 -8 -7 -11 -9 -11 -9 -1 0 7 -3 11
-7 9 -26 -16 -209 -26 -316 -17 -52 4 -64 22 -39 57 11 15 33 53 49 83 17 30
47 84 68 120 62 107 105 183 118 210 6 14 16 30 20 35 5 6 19 28 31 50 13 23
29 39 37 37 8 -2 24 -6 36 -8 12 -2 33 -8 45 -13 13 -5 68 -7 123 -6 86 3 121
6 170 20 6 1 29 6 52 10 25 4 40 12 36 18 -3 6 -1 7 6 3 6 -4 40 -1 74 8 34 8
78 18 97 21 19 3 36 8 38 10 3 2 41 3 86 2 71 -3 90 -8 155 -41z m604 33 c75
-20 164 -41 187 -44 14 -2 25 -4 25 -5 0 -2 20 -7 58 -14 15 -4 39 -9 55 -12
79 -18 246 -11 302 13 8 3 20 7 25 7 9 2 90 -127 117 -186 7 -16 16 -28 20
-28 5 0 8 -4 8 -9 0 -5 41 -80 90 -167 50 -86 90 -161 90 -166 0 -4 5 -8 12
-8 20 0 -2 -14 -40 -26 -35 -10 -209 -10 -277 0 -16 3 -43 7 -60 9 -16 3 -50
8 -75 12 -25 3 -79 13 -120 22 -41 8 -84 17 -95 19 -11 2 -40 8 -65 13 -25 5
-52 10 -60 10 -8 0 -28 3 -45 7 -62 12 -241 14 -290 3 -108 -26 -217 -103
-262 -186 -9 -18 -20 -33 -23 -33 -3 0 -4 141 -2 312 l2 313 46 41 c39 35 135
91 184 107 25 8 159 5 193 -4z m-1659 -215 c-21 -38 -43 -76 -49 -84 -7 -8
-27 -42 -45 -75 -18 -33 -44 -78 -56 -100 -13 -22 -27 -47 -31 -55 -4 -8 -19
-36 -35 -61 -15 -25 -28 -49 -28 -53 0 -30 222 -51 345 -33 22 4 58 9 80 12
23 3 52 8 65 10 14 3 39 8 55 11 17 2 73 13 125 23 52 11 113 22 135 27 22 4
47 9 55 10 69 15 213 20 290 11 36 -4 130 -40 130 -49 0 -4 6 -8 13 -8 24 0
117 -113 117 -142 0 -6 -12 -1 -27 13 -61 54 -148 96 -238 115 -40 8 -205 12
-205 5 0 -3 -17 -6 -38 -7 -38 -1 -122 -13 -132 -19 -3 -2 -24 -6 -46 -9 -51
-8 -81 -14 -102 -20 -9 -3 -30 -8 -47 -11 -16 -2 -41 -7 -55 -10 -179 -37
-401 -51 -480 -29 -29 8 -39 10 -60 13 -40 4 -42 17 -11 68 17 28 31 55 31 62
0 6 4 11 9 11 5 0 16 17 24 38 8 21 22 44 31 51 9 8 16 18 16 23 0 9 83 157
157 281 48 79 53 65 7 -19z m2536 -126 c63 -110 124 -217 135 -237 11 -20 32
-57 48 -83 15 -26 27 -49 27 -52 0 -7 -58 -24 -110 -32 -110 -17 -330 -2 -465
31 -33 8 -76 17 -95 19 -19 3 -66 12 -105 21 -38 8 -88 18 -110 21 -22 3 -60
10 -84 14 -43 8 -197 6 -236 -3 -65 -15 -155 -53 -206 -87 -33 -22 -59 -36
-59 -31 0 9 67 90 90 108 21 18 122 68 140 70 8 1 35 5 60 10 58 11 164 7 260
-11 19 -3 46 -8 60 -10 14 -2 60 -12 103 -21 43 -9 91 -18 105 -20 15 -2 38
-6 52 -9 14 -3 41 -7 60 -10 19 -3 46 -8 60 -10 165 -29 333 -26 398 6 12 6
22 15 22 19 0 4 -20 42 -45 83 -25 42 -45 81 -45 86 0 6 -4 10 -10 10 -5 0
-10 4 -10 9 0 5 -32 65 -71 133 -90 156 -101 178 -92 178 5 0 60 -91 123 -202z
m73 21 c42 -72 77 -135 77 -140 0 -5 5 -9 10 -9 6 0 10 -4 10 -9 0 -5 25 -50
55 -100 30 -51 55 -96 55 -101 0 -6 4 -10 8 -10 5 0 16 -15 25 -34 16 -34 16
-34 -11 -41 -14 -3 -42 -8 -62 -11 -19 -2 -46 -6 -60 -9 -28 -6 -177 -17 -230
-17 -118 0 -273 17 -420 47 -14 3 -59 12 -100 20 -41 8 -86 17 -100 20 -100
21 -245 26 -314 10 -60 -14 -152 -54 -182 -78 -53 -44 -98 -77 -105 -77 -39 0
29 75 115 125 26 15 80 38 121 50 63 20 92 23 187 20 62 -1 124 -6 138 -9 29
-7 76 -17 105 -21 18 -3 119 -23 155 -30 8 -2 17 -4 20 -5 3 -1 8 -2 11 -2 4
1 21 -3 39 -8 18 -5 49 -12 69 -15 20 -3 46 -7 56 -9 145 -28 344 -23 453 11
54 17 63 31 37 57 -9 8 -21 29 -26 46 -6 16 -15 30 -20 30 -5 0 -9 5 -9 12 0
6 -26 57 -59 112 -32 56 -68 118 -80 139 -11 20 -31 54 -43 75 -45 78 -48 86
-36 93 21 13 34 -2 111 -132z m-2637 119 c4 -6 3 -8 -4 -5 -12 8 -75 -99 -67
-114 4 -5 1 -8 -5 -7 -6 2 -24 -21 -40 -50 -16 -29 -48 -85 -72 -125 -24 -39
-49 -83 -56 -97 -7 -14 -26 -48 -41 -77 -21 -38 -26 -54 -18 -61 11 -7 64 -22
137 -38 32 -6 226 -7 265 -1 17 3 50 8 75 12 82 12 99 15 167 30 37 9 84 18
103 20 19 3 42 8 51 11 9 2 33 7 54 9 20 3 40 7 44 9 16 10 126 20 221 20 121
0 208 -24 289 -79 54 -36 111 -90 111 -105 0 -21 -40 -8 -76 26 -97 88 -190
118 -343 111 -58 -3 -119 -8 -136 -11 -16 -4 -64 -14 -105 -22 -41 -9 -84 -18
-95 -20 -11 -3 -31 -7 -45 -9 -14 -2 -52 -9 -85 -15 -137 -24 -321 -31 -460
-17 -69 7 -242 40 -250 48 -2 3 18 40 44 84 26 44 87 148 135 230 49 83 96
161 105 175 9 14 23 37 30 53 15 28 53 37 67 15z"/>
<path d="M1802 956 c-29 -25 -48 -48 -42 -51 5 -3 14 -4 19 -1 22 14 30 -29
33 -176 3 -136 5 -159 22 -177 l19 -21 41 32 c54 42 60 52 35 58 -11 3 -20 8
-20 13 1 4 1 12 1 17 0 27 28 4 53 -44 16 -29 39 -58 53 -64 22 -10 29 -8 64
24 46 42 49 49 18 51 -13 1 -33 15 -45 30 -34 42 -68 111 -60 119 4 4 24 0 44
-10 36 -17 36 -17 64 10 38 36 36 51 -5 71 -53 25 -78 12 -140 -73 l-54 -76
-4 136 c-3 121 -5 138 -23 156 l-21 20 -52 -44z"/>
<path d="M1050 942 c-14 -9 -36 -27 -50 -39 l-25 -23 -18 35 c-9 19 -22 35
-28 35 -16 0 -108 -73 -109 -87 0 -6 9 -9 21 -6 12 3 24 1 28 -6 10 -15 8
-277 -2 -287 -16 -17 -4 -24 41 -23 26 0 63 -1 82 -4 19 -3 46 1 60 8 31 17
125 105 132 125 11 31 -59 119 -83 104 -5 -3 -9 1 -9 8 0 7 16 23 35 35 31 20
34 27 29 55 -4 19 -19 45 -37 61 -36 31 -34 31 -67 9z m11 -78 c9 -11 7 -20
-6 -41 -20 -32 -77 -83 -86 -77 -3 2 -5 26 -3 54 1 38 7 54 25 69 24 19 51 18
70 -5z m-1 -171 c38 -22 53 -55 35 -79 -12 -17 -15 -17 -69 1 -31 11 -56 23
-57 27 -1 4 -1 19 -1 33 0 14 0 27 1 30 2 12 65 4 91 -12z"/>
<path d="M2489 920 l-44 -38 -12 29 c-19 46 -37 45 -93 -1 -52 -44 -55 -54
-17 -55 21 0 22 -3 25 -144 1 -87 -1 -148 -8 -156 -13 -16 -1 -26 19 -16 10 6
37 5 66 0 64 -12 117 7 167 59 123 127 112 289 -23 346 -36 15 -36 15 -80 -24z
m46 -75 c56 -61 76 -188 36 -228 -18 -18 -21 -18 -75 -3 l-56 17 0 106 c0 96
2 107 22 124 29 26 37 24 73 -16z"/>
<path d="M1278 803 c-58 -49 -85 -92 -80 -128 8 -55 12 -65 28 -90 10 -15 33
-34 51 -42 33 -13 34 -13 91 34 77 63 94 88 98 136 5 68 -37 123 -103 133 -22
3 -40 -6 -85 -43z m59 -45 c20 -22 41 -80 37 -105 -1 -7 -2 -20 -3 -28 -4 -51
-77 24 -86 89 -11 68 12 87 52 44z"/>
<path d="M1562 800 c-65 -54 -75 -71 -74 -131 1 -57 35 -113 80 -130 17 -7 31
-3 55 14 57 40 124 113 129 142 6 31 -8 93 -25 109 -63 59 -91 58 -165 -4z
m71 -52 c25 -34 37 -138 16 -138 -47 1 -85 73 -80 153 1 27 40 18 64 -15z"/>
<path d="M2743 815 c-21 -19 -41 -35 -45 -35 -5 0 -8 -7 -8 -16 0 -11 6 -14
20 -9 23 7 27 -6 33 -113 3 -51 10 -78 22 -92 17 -19 18 -19 66 18 46 36 64
60 35 49 -7 -3 -19 0 -25 6 -14 14 -14 134 0 143 6 3 23 -5 38 -20 l27 -26 21
22 c12 12 32 23 45 24 91 11 99 11 119 -5 21 -17 21 -17 -17 -29 -66 -21 -117
-78 -109 -122 14 -76 50 -92 112 -50 45 31 58 36 49 22 -3 -5 4 -19 15 -31 23
-25 20 -26 91 37 l26 24 14 -28 c7 -15 22 -33 33 -40 17 -11 26 -9 64 17 63
43 61 30 -4 -26 -61 -52 -89 -96 -80 -125 17 -54 126 2 197 100 23 33 25 42
24 143 -1 92 1 110 16 124 21 19 23 33 4 33 -7 0 -34 9 -60 21 -54 23 -70 20
-136 -27 -54 -38 -72 -73 -74 -139 -1 -40 -3 -45 -23 -45 -22 0 -23 4 -23 75
0 110 -20 140 -100 151 -34 5 -47 1 -88 -29 l-49 -35 -33 34 c-39 41 -49 42
-80 9 -28 -30 -37 -31 -45 -6 -10 33 -32 31 -72 -4z m659 -62 c12 -13 16 -34
15 -73 -3 -75 -12 -88 -43 -59 -40 37 -56 121 -31 156 10 14 33 5 59 -24z
m-283 -83 c-1 -38 -6 -53 -20 -60 -25 -14 -28 -13 -39 15 -15 38 11 81 57 94
2 1 2 -22 2 -49z m299 -164 c1 -34 -18 -53 -39 -40 -16 10 11 74 31 74 4 0 7
-15 8 -34z"/>
<path d="M3642 807 c-29 -24 -59 -53 -67 -65 -44 -62 3 -196 73 -204 32 -4
148 88 166 132 7 19 13 45 11 57 -1 14 5 23 19 27 33 9 37 -3 38 -122 0 -40 6
-60 22 -78 l21 -25 47 39 c47 39 51 52 16 52 -24 0 -23 44 1 85 21 35 51 46
52 18 0 -10 1 -46 3 -79 1 -38 9 -72 20 -88 l17 -27 27 20 c56 43 62 49 61 67
0 11 -3 14 -6 6 -4 -10 -8 -10 -19 -1 -10 8 -14 35 -14 89 0 89 -14 140 -38
139 -34 -1 -53 -15 -87 -63 l-35 -50 0 32 c0 18 -10 42 -23 58 l-23 27 -45
-42 c-49 -45 -64 -50 -72 -22 -6 24 -44 49 -83 56 -24 4 -39 -3 -82 -38z m50
-44 c26 -31 38 -60 40 -102 2 -50 -5 -58 -36 -41 -21 11 -54 63 -45 72 1 2 -2
12 -8 23 -13 24 0 65 20 65 8 0 21 -8 29 -17z"/>
</g>
</svg>
